# xmcd
#
# Track frame offsets:
#	150
#	16638
#	30063
#	38988
#	61971
#	78546
#	88521
#	109746
#	125571
#	142746
#	157596
#	168445
#	177370
#	193645
#
# Disc length: 2859 seconds
#
# Revision: 0
# Processed by: cddbd v1.4PL0 Copyright (c) Steve Scherf et al.
# Submitted via: EasyCDDAExtractor 5.0.5.1
#
DISCID=9d0b290e
DTITLE=Newell Oler - Country Backroads
DYEAR=1999
DGENRE=Country
TTITLE0=Invisible Tears
TTITLE1=The Healing Hands Of Time
TTITLE2=Hello Walls
TTITLE3=If Tomorrow Never Comes
TTITLE4=Better Love Next Time
TTITLE5=In The Misty Moonlight
TTITLE6=I Won't Mention It Again
TTITLE7=I Almost Lost My Mind
TTITLE8=I'll Leave This World Loving You
TTITLE9=Am I That Easy To Forget
TTITLE10=From A Jack To A King
TTITLE11=It Doesn't Matter Anymore
TTITLE12=On The Tips Of My Fingers
TTITLE13=He's Got You
EXTD=
EXTT0=
EXTT1=
EXTT2=
EXTT3=
EXTT4=
EXTT5=
EXTT6=
EXTT7=
EXTT8=
EXTT9=
EXTT10=
EXTT11=
EXTT12=
EXTT13=
PLAYORDER=
